<mxfile host="app.diagrams.net" agent="Mozilla/5.0 (Windows NT 10.0; Win64; x64) AppleWebKit/537.36 (KHTML, like Gecko) Chrome/135.0.0.0 Safari/537.36 Edg/135.0.0.0" version="26.2.14">
  <diagram name="Page-1" id="vnC3yHF8fLyAts4b2XOO">
    <mxGraphModel dx="778" dy="740" grid="1" gridSize="10" guides="1" tooltips="1" connect="1" arrows="1" fold="1" page="1" pageScale="1" pageWidth="850" pageHeight="1100" math="0" shadow="0">
      <root>
        <mxCell id="0" />
        <mxCell id="1" parent="0" />
        <mxCell id="ujJC0LlWgMVYZBNs40VY-2" style="edgeStyle=orthogonalEdgeStyle;rounded=0;orthogonalLoop=1;jettySize=auto;html=1;entryX=0;entryY=0.533;entryDx=0;entryDy=0;entryPerimeter=0;" edge="1" parent="1" source="ujJC0LlWgMVYZBNs40VY-1" target="ujJC0LlWgMVYZBNs40VY-4">
          <mxGeometry relative="1" as="geometry">
            <mxPoint x="160" y="80" as="targetPoint" />
          </mxGeometry>
        </mxCell>
        <mxCell id="ujJC0LlWgMVYZBNs40VY-1" value="" style="strokeWidth=2;html=1;shape=mxgraph.flowchart.start_2;whiteSpace=wrap;" vertex="1" parent="1">
          <mxGeometry x="40" y="30" width="100" height="100" as="geometry" />
        </mxCell>
        <mxCell id="ujJC0LlWgMVYZBNs40VY-5" style="edgeStyle=orthogonalEdgeStyle;rounded=0;orthogonalLoop=1;jettySize=auto;html=1;exitX=1;exitY=0.5;exitDx=0;exitDy=0;exitPerimeter=0;entryX=0.37;entryY=0.983;entryDx=0;entryDy=0;entryPerimeter=0;" edge="1" parent="1" source="ujJC0LlWgMVYZBNs40VY-4" target="ujJC0LlWgMVYZBNs40VY-6">
          <mxGeometry relative="1" as="geometry">
            <mxPoint x="330" y="130" as="targetPoint" />
          </mxGeometry>
        </mxCell>
        <mxCell id="ujJC0LlWgMVYZBNs40VY-4" value="Register and login&lt;div&gt;&lt;br&gt;&lt;/div&gt;" style="verticalLabelPosition=bottom;verticalAlign=top;html=1;shape=card;whiteSpace=wrap;size=20;arcSize=12;" vertex="1" parent="1">
          <mxGeometry x="180" y="150" width="100" height="60" as="geometry" />
        </mxCell>
        <mxCell id="ujJC0LlWgMVYZBNs40VY-7" style="edgeStyle=orthogonalEdgeStyle;rounded=0;orthogonalLoop=1;jettySize=auto;html=1;entryX=0;entryY=0.25;entryDx=0;entryDy=0;" edge="1" parent="1" source="ujJC0LlWgMVYZBNs40VY-6" target="ujJC0LlWgMVYZBNs40VY-8">
          <mxGeometry relative="1" as="geometry">
            <mxPoint x="440" y="60" as="targetPoint" />
          </mxGeometry>
        </mxCell>
        <mxCell id="ujJC0LlWgMVYZBNs40VY-6" value="Add any of the 4 property types&lt;div&gt;&lt;br&gt;&lt;/div&gt;" style="verticalLabelPosition=bottom;verticalAlign=top;html=1;shape=card;whiteSpace=wrap;size=20;arcSize=12;" vertex="1" parent="1">
          <mxGeometry x="280" y="30" width="90" height="60" as="geometry" />
        </mxCell>
        <mxCell id="ujJC0LlWgMVYZBNs40VY-9" style="edgeStyle=orthogonalEdgeStyle;rounded=0;orthogonalLoop=1;jettySize=auto;html=1;entryX=0.5;entryY=0;entryDx=0;entryDy=0;entryPerimeter=0;" edge="1" parent="1" source="ujJC0LlWgMVYZBNs40VY-8" target="ujJC0LlWgMVYZBNs40VY-10">
          <mxGeometry relative="1" as="geometry">
            <mxPoint x="525" y="170" as="targetPoint" />
          </mxGeometry>
        </mxCell>
        <mxCell id="ujJC0LlWgMVYZBNs40VY-8" value="Add images to your properties, as well as any other data such as bedrooms, garages,&amp;nbsp;&lt;div&gt;&lt;br&gt;&lt;/div&gt;" style="shape=parallelogram;html=1;strokeWidth=2;perimeter=parallelogramPerimeter;whiteSpace=wrap;rounded=1;arcSize=12;size=0.23;" vertex="1" parent="1">
          <mxGeometry x="460" y="20" width="130" height="80" as="geometry" />
        </mxCell>
        <mxCell id="ujJC0LlWgMVYZBNs40VY-10" value="Lease or sell?" style="strokeWidth=2;html=1;shape=mxgraph.flowchart.decision;whiteSpace=wrap;" vertex="1" parent="1">
          <mxGeometry x="470" y="230" width="90" height="100" as="geometry" />
        </mxCell>
        <mxCell id="ujJC0LlWgMVYZBNs40VY-20" style="edgeStyle=orthogonalEdgeStyle;rounded=0;orthogonalLoop=1;jettySize=auto;html=1;entryX=0.5;entryY=0;entryDx=0;entryDy=0;" edge="1" parent="1" source="ujJC0LlWgMVYZBNs40VY-13" target="ujJC0LlWgMVYZBNs40VY-19">
          <mxGeometry relative="1" as="geometry" />
        </mxCell>
        <mxCell id="ujJC0LlWgMVYZBNs40VY-13" value="Add data about lease details such as deposit, rent, etc" style="shape=parallelogram;html=1;strokeWidth=2;perimeter=parallelogramPerimeter;whiteSpace=wrap;rounded=1;arcSize=12;size=0.23;" vertex="1" parent="1">
          <mxGeometry x="240" y="350" width="170" height="50" as="geometry" />
        </mxCell>
        <mxCell id="ujJC0LlWgMVYZBNs40VY-14" style="edgeStyle=orthogonalEdgeStyle;rounded=0;orthogonalLoop=1;jettySize=auto;html=1;entryX=0.606;entryY=0.05;entryDx=0;entryDy=0;entryPerimeter=0;" edge="1" parent="1" source="ujJC0LlWgMVYZBNs40VY-10" target="ujJC0LlWgMVYZBNs40VY-13">
          <mxGeometry relative="1" as="geometry" />
        </mxCell>
        <mxCell id="ujJC0LlWgMVYZBNs40VY-15" value="Lease" style="edgeLabel;html=1;align=center;verticalAlign=middle;resizable=0;points=[];" vertex="1" connectable="0" parent="ujJC0LlWgMVYZBNs40VY-14">
          <mxGeometry x="-0.24" y="-2" relative="1" as="geometry">
            <mxPoint as="offset" />
          </mxGeometry>
        </mxCell>
        <mxCell id="ujJC0LlWgMVYZBNs40VY-21" style="edgeStyle=orthogonalEdgeStyle;rounded=0;orthogonalLoop=1;jettySize=auto;html=1;entryX=0.5;entryY=0;entryDx=0;entryDy=0;" edge="1" parent="1" source="ujJC0LlWgMVYZBNs40VY-19" target="ujJC0LlWgMVYZBNs40VY-22">
          <mxGeometry relative="1" as="geometry">
            <mxPoint x="292.5" y="590" as="targetPoint" />
          </mxGeometry>
        </mxCell>
        <mxCell id="ujJC0LlWgMVYZBNs40VY-19" value="Create and preiew ad" style="shape=parallelogram;html=1;strokeWidth=2;perimeter=parallelogramPerimeter;whiteSpace=wrap;rounded=1;arcSize=12;size=0.23;" vertex="1" parent="1">
          <mxGeometry x="242.5" y="470" width="165" height="60" as="geometry" />
        </mxCell>
        <mxCell id="ujJC0LlWgMVYZBNs40VY-22" value="Make ad active" style="shape=parallelogram;html=1;strokeWidth=2;perimeter=parallelogramPerimeter;whiteSpace=wrap;rounded=1;arcSize=12;size=0.23;" vertex="1" parent="1">
          <mxGeometry x="242.5" y="620" width="165" height="60" as="geometry" />
        </mxCell>
        <mxCell id="ujJC0LlWgMVYZBNs40VY-24" value="Add Selling details such&amp;nbsp;" style="shape=parallelogram;html=1;strokeWidth=2;perimeter=parallelogramPerimeter;whiteSpace=wrap;rounded=1;arcSize=12;size=0.23;" vertex="1" parent="1">
          <mxGeometry x="600" y="340" width="200" height="60" as="geometry" />
        </mxCell>
        <mxCell id="ujJC0LlWgMVYZBNs40VY-25" style="edgeStyle=orthogonalEdgeStyle;rounded=0;orthogonalLoop=1;jettySize=auto;html=1;entryX=0.653;entryY=0.08;entryDx=0;entryDy=0;entryPerimeter=0;" edge="1" parent="1" source="ujJC0LlWgMVYZBNs40VY-10" target="ujJC0LlWgMVYZBNs40VY-24">
          <mxGeometry relative="1" as="geometry" />
        </mxCell>
        <mxCell id="ujJC0LlWgMVYZBNs40VY-26" value="Sell" style="edgeLabel;html=1;align=center;verticalAlign=middle;resizable=0;points=[];" vertex="1" connectable="0" parent="ujJC0LlWgMVYZBNs40VY-25">
          <mxGeometry x="-0.1721" y="1" relative="1" as="geometry">
            <mxPoint as="offset" />
          </mxGeometry>
        </mxCell>
        <mxCell id="ujJC0LlWgMVYZBNs40VY-30" style="edgeStyle=orthogonalEdgeStyle;rounded=0;orthogonalLoop=1;jettySize=auto;html=1;" edge="1" parent="1" source="ujJC0LlWgMVYZBNs40VY-27" target="ujJC0LlWgMVYZBNs40VY-28">
          <mxGeometry relative="1" as="geometry" />
        </mxCell>
        <mxCell id="ujJC0LlWgMVYZBNs40VY-27" value="Create and preiew ad" style="shape=parallelogram;html=1;strokeWidth=2;perimeter=parallelogramPerimeter;whiteSpace=wrap;rounded=1;arcSize=12;size=0.23;" vertex="1" parent="1">
          <mxGeometry x="620" y="460" width="165" height="60" as="geometry" />
        </mxCell>
        <mxCell id="ujJC0LlWgMVYZBNs40VY-28" value="Make ad active" style="shape=parallelogram;html=1;strokeWidth=2;perimeter=parallelogramPerimeter;whiteSpace=wrap;rounded=1;arcSize=12;size=0.23;" vertex="1" parent="1">
          <mxGeometry x="617.5" y="620" width="165" height="60" as="geometry" />
        </mxCell>
        <mxCell id="ujJC0LlWgMVYZBNs40VY-29" style="edgeStyle=orthogonalEdgeStyle;rounded=0;orthogonalLoop=1;jettySize=auto;html=1;entryX=0.467;entryY=0.067;entryDx=0;entryDy=0;entryPerimeter=0;" edge="1" parent="1" source="ujJC0LlWgMVYZBNs40VY-24" target="ujJC0LlWgMVYZBNs40VY-27">
          <mxGeometry relative="1" as="geometry" />
        </mxCell>
      </root>
    </mxGraphModel>
  </diagram>
</mxfile>
